<svg width="74" height="68" viewBox="0 0 74 68" fill="none" xmlns="http://www.w3.org/2000/svg">
<g clip-path="url(#clip0)">
<path d="M13.7975 12.3521C16.0663 14.0334 16.9257 13.9146 21.2088 13.6542L61.5879 11.4521C62.4473 11.4521 61.7323 10.6709 61.4436 10.5396L54.7359 6.13338C53.4594 5.22088 51.7407 4.19171 48.4567 4.43963L9.36774 7.0438C7.93545 7.16255 7.64899 7.81463 8.22191 8.33546L13.7975 12.3521ZM16.2198 20.9146V59.5313C16.2198 61.6042 17.3542 62.3855 19.9209 62.2542L64.299 59.9209C66.8657 59.7896 67.1636 58.3688 67.1636 56.6771V18.3209C67.1636 16.6271 66.4463 15.7271 64.8719 15.8584L18.5023 18.3209C16.7836 18.4521 16.2221 19.2209 16.2221 20.9042L16.2198 20.9146ZM60.025 22.9751C60.3115 24.148 60.025 25.3084 58.7348 25.4501L56.599 25.8417V54.3459C54.7359 55.2584 53.0309 55.7792 51.61 55.7792C49.3184 55.7792 48.7454 55.1271 47.0382 53.1855L33.0498 33.2209V52.5355L37.4773 53.448C37.4773 53.448 37.4773 55.7813 33.9092 55.7813L24.0619 56.3021C23.7754 55.7813 24.0619 54.4792 25.0657 54.2292L27.6323 53.5771V28.0459L24.0642 27.7855C23.7777 26.6126 24.495 24.9313 26.4865 24.8021L37.0488 24.1501L51.61 44.3751V26.4813L47.8975 26.0896C47.6111 24.6688 48.7454 23.6271 50.1777 23.5063L60.025 22.9751ZM6.08607 3.54171L46.7517 0.818796C51.7407 0.427129 53.0309 0.687546 56.1682 2.76046L69.155 11.0605C71.2909 12.4813 72.0082 12.873 72.0082 14.4251V59.923C72.0082 62.7771 70.8623 64.4584 66.8748 64.7188L19.6321 67.3126C16.6484 67.4438 15.2161 67.0522 13.6394 65.2396L4.07857 53.9542C2.37128 51.8813 1.65628 50.3292 1.65628 48.5188V8.07922C1.65628 5.74588 2.80211 3.80421 6.08378 3.5438L6.08607 3.54171Z" fill="#1D1D1B"/>
</g>
<defs>
<clipPath id="clip0">
<rect width="73.3333" height="66.6667" fill="white" transform="translate(0.166656 0.666626)"/>
</clipPath>
</defs>
</svg>
