<svg width="74" height="68" viewBox="0 0 74 68" fill="none" xmlns="http://www.w3.org/2000/svg">
<path d="M59.75 63.1667H25.375C24.1598 63.1656 22.9947 62.7262 22.1354 61.9451C21.2761 61.1639 20.7929 60.1047 20.7917 59V46.5H25.375V59H59.75V13.1667H39.125V9H59.75C60.9652 9.0011 62.1303 9.44044 62.9896 10.2216C63.8488 11.0028 64.3321 12.0619 64.3333 13.1667V59C64.3321 60.1047 63.8488 61.1639 62.9896 61.9451C62.1303 62.7262 60.9652 63.1656 59.75 63.1667Z" fill="#1D1D1B"/>
<path d="M39.125 21.5H55.1667V25.6667H39.125V21.5Z" fill="#1D1D1B"/>
<path d="M36.8333 31.9166H55.1667V36.0833H36.8333V31.9166Z" fill="#1D1D1B"/>
<path d="M34.5417 42.3333H55.1667V46.4999H34.5417V42.3333Z" fill="#1D1D1B"/>
<path d="M20.7917 40.2499C17.7537 40.2472 14.8409 39.1488 12.6927 37.1959C10.5445 35.243 9.33636 32.5951 9.33333 29.8333V6.91659H13.9167V29.8333C13.9167 31.4909 14.641 33.0806 15.9303 34.2527C17.2196 35.4248 18.9683 36.0833 20.7917 36.0833C22.615 36.0833 24.3637 35.4248 25.653 34.2527C26.9423 33.0806 27.6667 31.4909 27.6667 29.8333V11.0833C27.6667 10.5307 27.4252 10.0008 26.9954 9.61011C26.5657 9.21941 25.9828 8.99992 25.375 8.99992C24.7672 8.99992 24.1843 9.21941 23.7545 9.61011C23.3248 10.0008 23.0833 10.5307 23.0833 11.0833V31.9166H18.5V11.0833C18.5 9.42565 19.2243 7.83594 20.5136 6.66383C21.8029 5.49173 23.5516 4.83325 25.375 4.83325C27.1984 4.83325 28.947 5.49173 30.2364 6.66383C31.5257 7.83594 32.25 9.42565 32.25 11.0833V29.8333C32.247 32.5951 31.0388 35.243 28.8906 37.1959C26.7424 39.1488 23.8297 40.2472 20.7917 40.2499Z" fill="#1D1D1B"/>
</svg>
