<svg width="74" height="50" viewBox="0 0 74 50" fill="none" xmlns="http://www.w3.org/2000/svg">
<path d="M68.75 50C68.75 50 73.3333 50 73.3333 45.8333C73.3333 41.6667 68.75 29.1667 50.4167 29.1667C32.0833 29.1667 27.5 41.6667 27.5 45.8333C27.5 50 32.0833 50 32.0833 50H68.75ZM32.1842 45.8333C32.1503 45.8291 32.1167 45.8235 32.0833 45.8167C32.0879 44.7167 32.8488 41.525 35.5667 38.65C38.0967 35.9542 42.5425 33.3333 50.4167 33.3333C58.2863 33.3333 62.7321 35.9583 65.2667 38.65C67.9846 41.525 68.7408 44.7208 68.75 45.8167L68.7133 45.825C68.692 45.8283 68.6706 45.8311 68.6492 45.8333H32.1842ZM50.4167 20.8333C52.8478 20.8333 55.1794 19.9554 56.8985 18.3926C58.6176 16.8298 59.5833 14.7101 59.5833 12.5C59.5833 10.2899 58.6176 8.17025 56.8985 6.60744C55.1794 5.04464 52.8478 4.16667 50.4167 4.16667C47.9855 4.16667 45.6539 5.04464 43.9349 6.60744C42.2158 8.17025 41.25 10.2899 41.25 12.5C41.25 14.7101 42.2158 16.8298 43.9349 18.3926C45.6539 19.9554 47.9855 20.8333 50.4167 20.8333ZM64.1667 12.5C64.1667 14.1415 63.811 15.767 63.12 17.2835C62.429 18.8001 61.4162 20.1781 60.1394 21.3388C58.8626 22.4996 57.3468 23.4203 55.6786 24.0485C54.0103 24.6767 52.2223 25 50.4167 25C48.611 25 46.823 24.6767 45.1548 24.0485C43.4865 23.4203 41.9708 22.4996 40.6939 21.3388C39.4171 20.1781 38.4043 18.8001 37.7133 17.2835C37.0223 15.767 36.6667 14.1415 36.6667 12.5C36.6667 9.18479 38.1153 6.00537 40.6939 3.66117C43.2726 1.31696 46.7699 0 50.4167 0C54.0634 0 57.5608 1.31696 60.1394 3.66117C62.718 6.00537 64.1667 9.18479 64.1667 12.5ZM31.79 30.3333C29.9566 29.8085 28.0667 29.4635 26.1525 29.3042C25.0769 29.2112 23.9971 29.1653 22.9167 29.1667C4.58333 29.1667 0 41.6667 0 45.8333C0 48.6125 1.52625 50 4.58333 50H23.9067C23.2272 48.6992 22.8884 47.2731 22.9167 45.8333C22.9167 41.625 24.6446 37.325 27.9125 33.7333C29.0263 32.5083 30.3233 31.3625 31.79 30.3333ZM22.55 33.3333C19.8374 37.0386 18.372 41.3826 18.3333 45.8333H4.58333C4.58333 44.75 5.335 41.5417 8.06667 38.65C10.5646 36 14.905 33.4167 22.55 33.3375V33.3333ZM6.875 14.5833C6.875 11.2681 8.32366 8.0887 10.9023 5.7445C13.4809 3.40029 16.9783 2.08333 20.625 2.08333C24.2717 2.08333 27.7691 3.40029 30.3477 5.7445C32.9263 8.0887 34.375 11.2681 34.375 14.5833C34.375 17.8985 32.9263 21.078 30.3477 23.4222C27.7691 25.7664 24.2717 27.0833 20.625 27.0833C16.9783 27.0833 13.4809 25.7664 10.9023 23.4222C8.32366 21.078 6.875 17.8985 6.875 14.5833ZM20.625 6.25C18.1938 6.25 15.8623 7.12797 14.1432 8.69078C12.4241 10.2536 11.4583 12.3732 11.4583 14.5833C11.4583 16.7935 12.4241 18.9131 14.1432 20.4759C15.8623 22.0387 18.1938 22.9167 20.625 22.9167C23.0562 22.9167 25.3877 22.0387 27.1068 20.4759C28.8259 18.9131 29.7917 16.7935 29.7917 14.5833C29.7917 12.3732 28.8259 10.2536 27.1068 8.69078C25.3877 7.12797 23.0562 6.25 20.625 6.25Z" fill="#1D1D1B"/>
</svg>
