<svg width="48" height="48" viewBox="0 0 48 48" fill="none" xmlns="http://www.w3.org/2000/svg">
<path d="M24.0002 47.3332C36.8809 47.3191 47.3194 36.8807 47.3335 23.9999V23.5332C47.077 10.7105 36.5195 0.498444 23.6953 0.6686C10.8711 0.838756 0.5882 11.3273 0.671997 24.1523C0.755795 36.9774 11.1748 47.3306 24.0002 47.3332ZM24.0002 5.33321C34.3095 5.33321 42.6668 13.6906 42.6668 23.9999C42.6668 34.3092 34.3095 42.6665 24.0002 42.6665C13.6908 42.6665 5.3335 34.3092 5.3335 23.9999C5.34507 13.6954 13.6956 5.34479 24.0002 5.33321ZM25.733 34.016C26.6444 34.9275 28.1226 34.9269 29.0337 34.0151C29.9444 33.1038 29.9445 31.6265 29.0335 30.7155L22.4345 24.1165L29.0335 17.5175C29.9445 16.6065 29.9444 15.1293 29.0337 14.218C28.1226 13.3062 26.6444 13.3056 25.733 14.217L17.4834 22.4666C16.5722 23.3779 16.5722 24.8552 17.4834 25.7665L25.733 34.016Z" fill="white"/>
</svg>
