<svg width="65" height="52" viewBox="0 0 65 52" fill="none" xmlns="http://www.w3.org/2000/svg">
<path d="M32.0925 4.92506C26.6556 4.92529 21.3409 6.3906 16.8197 9.13583C12.2986 11.8811 8.77401 15.783 6.69138 20.3486C4.60874 24.9142 4.0615 29.9386 5.11881 34.7868C6.17613 39.6351 8.79054 44.0896 12.6317 47.5876C12.8502 47.78 13.0244 48.0101 13.1441 48.2645C13.2638 48.5188 13.3266 48.7922 13.3288 49.0689C13.331 49.3455 13.2726 49.6197 13.157 49.8756C13.0414 50.1315 12.8708 50.3638 12.6554 50.5592C12.4399 50.7545 12.1838 50.9089 11.902 51.0133C11.6202 51.1176 11.3184 51.17 11.0141 51.1672C10.7099 51.1644 10.4092 51.1066 10.1298 50.997C9.8504 50.8875 9.59778 50.7285 9.38669 50.5292C4.90527 46.4482 1.8551 41.2511 0.621629 35.5947C-0.611845 29.9383 0.0267313 24.0764 2.45666 18.7498C4.88659 13.4232 8.99882 8.871 14.2737 5.66834C19.5486 2.46568 25.7494 0.756348 32.0925 0.756348C38.4357 0.756348 44.6364 2.46568 49.9113 5.66834C55.1862 8.871 59.2984 13.4232 61.7284 18.7498C64.1583 24.0764 64.7969 29.9383 63.5634 35.5947C62.3299 41.2511 59.2798 46.4482 54.7983 50.5292C54.5873 50.7285 54.3346 50.8875 54.0552 50.997C53.7758 51.1066 53.4752 51.1644 53.1709 51.1672C52.8666 51.17 52.5648 51.1176 52.283 51.0133C52.0012 50.9089 51.7451 50.7545 51.5297 50.5592C51.3142 50.3638 51.1437 50.1315 51.028 49.8756C50.9124 49.6197 50.854 49.3455 50.8562 49.0689C50.8584 48.7922 50.9212 48.5188 51.0409 48.2645C51.1606 48.0101 51.3348 47.78 51.5533 47.5876C55.3945 44.0896 58.0089 39.6351 59.0662 34.7868C60.1235 29.9386 59.5763 24.9142 57.4937 20.3486C55.411 15.783 51.8864 11.8811 47.3653 9.13583C42.8442 6.3906 37.5294 4.92529 32.0925 4.92506Z" fill="#1D1D1B"/>
<path d="M32.0925 15.3416C28.9196 15.3413 25.8179 16.1965 23.1796 17.799C20.5414 19.4014 18.4851 21.6791 17.2709 24.3439C16.0566 27.0088 15.7389 29.9412 16.358 32.7702C16.9771 35.5993 18.5051 38.1979 20.7488 40.2374C20.9677 40.4296 21.1422 40.6595 21.2623 40.9136C21.3824 41.1678 21.4457 41.4412 21.4483 41.7178C21.4509 41.9944 21.393 42.2688 21.2777 42.5248C21.1625 42.7808 20.9923 43.0134 20.7772 43.209C20.562 43.4046 20.3061 43.5593 20.0245 43.6641C19.7429 43.7688 19.4411 43.8216 19.1368 43.8192C18.8325 43.8168 18.5318 43.7593 18.2522 43.6501C17.9726 43.5409 17.7198 43.3822 17.5084 43.1832C14.6239 40.561 12.6596 37.22 11.8638 33.5829C11.068 29.9458 11.4765 26.1758 13.0375 22.7497C14.5986 19.3236 17.2422 16.3952 20.6339 14.335C24.0257 12.2747 28.0133 11.175 32.0925 11.175C36.1717 11.175 40.1594 12.2747 43.5511 14.335C46.9429 16.3952 49.5864 19.3236 51.1475 22.7497C52.7086 26.1758 53.117 29.9458 52.3212 33.5829C51.5254 37.22 49.5611 40.561 46.6767 43.1832C46.2445 43.5627 45.6656 43.7727 45.0647 43.768C44.4639 43.7632 43.8891 43.5441 43.4642 43.1578C43.0393 42.7716 42.7983 42.249 42.7931 41.7028C42.7878 41.1566 43.0188 40.6303 43.4363 40.2374C45.68 38.1979 47.208 35.5993 47.827 32.7702C48.4461 29.9412 48.1284 27.0088 46.9142 24.3439C45.6999 21.6791 43.6437 19.4014 41.0054 17.799C38.3671 16.1965 35.2654 15.3413 32.0925 15.3416Z" fill="#1D1D1B"/>
<path d="M32.0925 21.5917C29.6614 21.5917 27.3298 22.4696 25.6107 24.0325C23.8916 25.5953 22.9259 27.7149 22.9259 29.925C22.9259 32.1351 23.8916 34.2548 25.6107 35.8176C27.3298 37.3804 29.6614 38.2583 32.0925 38.2583C34.5237 38.2583 36.8553 37.3804 38.5743 35.8176C40.2934 34.2548 41.2592 32.1351 41.2592 29.925C41.2592 27.7149 40.2934 25.5953 38.5743 24.0325C36.8553 22.4696 34.5237 21.5917 32.0925 21.5917ZM27.5092 29.925C27.5092 28.8199 27.9921 27.7601 28.8516 26.9787C29.7112 26.1973 30.8769 25.7583 32.0925 25.7583C33.3081 25.7583 34.4739 26.1973 35.3334 26.9787C36.193 27.7601 36.6759 28.8199 36.6759 29.925C36.6759 31.0301 36.193 32.0899 35.3334 32.8713C34.4739 33.6527 33.3081 34.0917 32.0925 34.0917C30.8769 34.0917 29.7112 33.6527 28.8516 32.8713C27.9921 32.0899 27.5092 31.0301 27.5092 29.925Z" fill="#1D1D1B"/>
</svg>
