<svg width="22" height="23" viewBox="0 0 22 23" fill="none" xmlns="http://www.w3.org/2000/svg">
<path d="M11.6625 11.1995L3.68439 1.12827C3.59064 1.00786 3.44377 0.939941 3.29064 0.939941H0.875017C0.665642 0.939941 0.550017 1.17767 0.678142 1.33822L8.97189 11.8077L0.678142 22.2771C0.649288 22.3135 0.631385 22.3572 0.626479 22.4032C0.621573 22.4492 0.629863 22.4956 0.6504 22.5372C0.670937 22.5787 0.702893 22.6137 0.742614 22.6381C0.782335 22.6626 0.828218 22.6755 0.875017 22.6754H3.29064C3.44377 22.6754 3.59064 22.6044 3.68439 22.4871L11.6625 12.419C11.9469 12.0578 11.9469 11.5576 11.6625 11.1995ZM21.1625 11.1995L13.1844 1.12827C13.0906 1.00786 12.9438 0.939941 12.7906 0.939941H10.375C10.1656 0.939941 10.05 1.17767 10.1781 1.33822L18.4719 11.8077L10.1781 22.2771C10.1493 22.3135 10.1314 22.3572 10.1265 22.4032C10.1216 22.4492 10.1299 22.4956 10.1504 22.5372C10.1709 22.5787 10.2029 22.6137 10.2426 22.6381C10.2823 22.6626 10.3282 22.6755 10.375 22.6754H12.7906C12.9438 22.6754 13.0906 22.6044 13.1844 22.4871L21.1625 12.419C21.4469 12.0578 21.4469 11.5576 21.1625 11.1995Z" fill="#FFA500"/>
</svg>
