<svg width="32" height="32" viewBox="0 0 32 32" fill="none" xmlns="http://www.w3.org/2000/svg">
<path d="M16 7.98871C11.5664 7.98871 7.98828 11.5668 7.98828 16.0004C7.98828 20.434 11.5664 24.0121 16 24.0121C20.4336 24.0121 24.0117 20.434 24.0117 16.0004C24.0117 11.5668 20.4336 7.98871 16 7.98871ZM16 21.2075C13.1328 21.2075 10.793 18.8676 10.793 16.0004C10.793 13.1332 13.1328 10.7934 16 10.7934C18.8672 10.7934 21.207 13.1332 21.207 16.0004C21.207 18.8676 18.8672 21.2075 16 21.2075ZM24.3398 5.7934C23.3047 5.7934 22.4688 6.62933 22.4688 7.66449C22.4688 8.69965 23.3047 9.53558 24.3398 9.53558C25.375 9.53558 26.2109 8.70355 26.2109 7.66449C26.2113 7.41869 26.1631 7.17524 26.0691 6.94809C25.9752 6.72094 25.8374 6.51455 25.6636 6.34074C25.4898 6.16693 25.2834 6.02912 25.0562 5.9352C24.8291 5.84128 24.5856 5.79309 24.3398 5.7934ZM31.6172 16.0004C31.6172 13.8442 31.6367 11.7075 31.5156 9.55512C31.3945 7.05512 30.8242 4.83637 28.9961 3.00824C27.1641 1.17621 24.9492 0.609804 22.4492 0.488711C20.293 0.367617 18.1562 0.387148 16.0039 0.387148C13.8477 0.387148 11.7109 0.367617 9.5586 0.488711C7.0586 0.609804 4.83985 1.18012 3.01172 3.00824C1.17969 4.84027 0.613283 7.05512 0.49219 9.55512C0.371096 11.7114 0.390627 13.8481 0.390627 16.0004C0.390627 18.1528 0.371096 20.2934 0.49219 22.4457C0.613283 24.9457 1.1836 27.1645 3.01172 28.9926C4.84375 30.8246 7.0586 31.3911 9.5586 31.5121C11.7148 31.6332 13.8516 31.6137 16.0039 31.6137C18.1602 31.6137 20.2969 31.6332 22.4492 31.5121C24.9492 31.3911 27.168 30.8207 28.9961 28.9926C30.8281 27.1606 31.3945 24.9457 31.5156 22.4457C31.6406 20.2934 31.6172 18.1567 31.6172 16.0004ZM28.1797 25.2114C27.8945 25.9223 27.5508 26.4536 27 27.0004C26.4492 27.5512 25.9219 27.895 25.2109 28.1801C23.1563 28.9965 18.2773 28.8129 16 28.8129C13.7227 28.8129 8.83985 28.9965 6.78516 28.184C6.07422 27.8989 5.54297 27.5551 4.9961 27.0043C4.44531 26.4536 4.10157 25.9262 3.81641 25.2153C3.00391 23.1567 3.1875 18.2778 3.1875 16.0004C3.1875 13.7231 3.00391 8.84027 3.81641 6.78558C4.10157 6.07465 4.44531 5.5434 4.9961 4.99652C5.54688 4.44965 6.07422 4.10199 6.78516 3.81684C8.83985 3.00434 13.7227 3.18793 16 3.18793C18.2773 3.18793 23.1602 3.00434 25.2148 3.81684C25.9258 4.10199 26.457 4.44574 27.0039 4.99652C27.5547 5.5473 27.8984 6.07465 28.1836 6.78558C28.9961 8.84027 28.8125 13.7231 28.8125 16.0004C28.8125 18.2778 28.9961 23.1567 28.1797 25.2114Z" fill="black"/>
</svg>
