<svg width="48" height="48" viewBox="0 0 48 48" fill="none" xmlns="http://www.w3.org/2000/svg">
<path d="M23.9998 0.66655C11.1191 0.680693 0.680656 11.1191 0.666508 23.9999L0.666508 24.4665C0.923012 37.2893 11.4805 47.5013 24.3047 47.3312C37.1289 47.161 47.4118 36.6725 47.328 23.8474C47.2442 11.0224 36.8252 0.669119 23.9998 0.66655ZM23.9998 42.6665C13.6905 42.6665 5.33317 34.3092 5.33317 23.9999C5.33318 13.6906 13.6905 5.33322 23.9998 5.33322C34.3092 5.33322 42.6665 13.6906 42.6665 23.9999C42.6549 34.3044 34.3044 42.655 23.9998 42.6665ZM22.267 13.9837C21.3556 13.0723 19.8774 13.0729 18.9663 13.9846C18.0556 14.8959 18.0555 16.3732 18.9665 17.2842L25.5655 23.8832L18.9665 30.4822C18.0555 31.3932 18.0556 32.8705 18.9663 33.7818C19.8774 34.6936 21.3556 34.6942 22.267 33.7827L30.5166 25.5331C31.4278 24.6219 31.4278 23.1445 30.5166 22.2333L22.267 13.9837Z" fill="white"/>
</svg>
