<svg width="396" height="77" viewBox="0 0 396 77" fill="none" xmlns="http://www.w3.org/2000/svg">
<path d="M19.0754 68.3439C17.8173 68.3439 16.7988 67.3237 16.7988 66.068V49.2759C16.7988 48.0182 17.8193 47 19.0754 47C20.3315 47 21.352 48.0202 21.352 49.2759V66.068C21.352 67.3237 20.3335 68.3439 19.0754 68.3439Z" fill="white"/>
<path d="M19.0754 68.3438H2.27659C1.01848 68.3438 0 67.3257 0 66.0679C0 64.8102 1.02047 63.792 2.27659 63.792H19.0734C20.3315 63.792 21.35 64.8102 21.35 66.0679C21.35 67.3257 20.3335 68.3438 19.0754 68.3438Z" fill="white"/>
<path d="M27.3811 76.6471C26.123 76.6471 25.1045 75.6269 25.1045 74.3711V57.5792C25.1045 56.3214 26.125 55.3032 27.3811 55.3032C28.6392 55.3032 29.6577 56.3234 29.6577 57.5792V74.3711C29.6597 75.6289 28.6392 76.6471 27.3811 76.6471Z" fill="white"/>
<path d="M27.381 76.647H10.5842C9.32608 76.647 8.30762 75.6289 8.30762 74.3711C8.30762 73.1134 9.32808 72.0952 10.5842 72.0952H27.381C28.6391 72.0952 29.6576 73.1134 29.6576 74.3711C29.6576 75.6289 28.6391 76.647 27.381 76.647Z" fill="white"/>
<path d="M56.7331 68.3439C55.475 68.3439 54.4565 67.3237 54.4565 66.068V49.2759C54.4565 48.0182 55.477 47 56.7331 47C57.9893 47 59.0097 48.0202 59.0097 49.2759V66.068C59.0097 67.3237 57.9913 68.3439 56.7331 68.3439Z" fill="white"/>
<path d="M56.7331 68.3438H39.9343C38.6762 68.3438 37.6577 67.3257 37.6577 66.0679C37.6577 64.8102 38.6782 63.792 39.9343 63.792H56.7311C57.9892 63.792 59.0077 64.8102 59.0077 66.0679C59.0077 67.3257 57.9912 68.3438 56.7331 68.3438Z" fill="white"/>
<path d="M65.0388 76.6471C63.7807 76.6471 62.7622 75.6269 62.7622 74.3711V57.5792C62.7622 56.3214 63.7827 55.3032 65.0388 55.3032C66.2969 55.3032 67.3154 56.3234 67.3154 57.5792V74.3711C67.3174 75.6289 66.2969 76.6471 65.0388 76.6471Z" fill="white"/>
<path d="M65.0387 76.647H48.2419C46.9838 76.647 45.9653 75.6289 45.9653 74.3711C45.9653 73.1134 46.9858 72.0952 48.2419 72.0952H65.0387C66.2968 72.0952 67.3153 73.1134 67.3153 74.3711C67.3153 75.6289 66.2968 76.647 65.0387 76.647Z" fill="white"/>
<path d="M94.3909 68.3439C93.1327 68.3439 92.1143 67.3237 92.1143 66.068V49.2759C92.1143 48.0182 93.1347 47 94.3909 47C95.647 47 96.6674 48.0202 96.6674 49.2759V66.068C96.6674 67.3237 95.649 68.3439 94.3909 68.3439Z" fill="white"/>
<path d="M94.3908 68.3438H77.592C76.3339 68.3438 75.3154 67.3257 75.3154 66.0679C75.3154 64.8102 76.3359 63.792 77.592 63.792H94.3888C95.6469 63.792 96.6654 64.8102 96.6654 66.0679C96.6654 67.3257 95.6489 68.3438 94.3908 68.3438Z" fill="white"/>
<path d="M102.697 76.6471C101.438 76.6471 100.42 75.6269 100.42 74.3711V57.5792C100.42 56.3214 101.44 55.3032 102.697 55.3032C103.955 55.3032 104.973 56.3234 104.973 57.5792V74.3711C104.975 75.6289 103.955 76.6471 102.697 76.6471Z" fill="white"/>
<path d="M102.696 76.647H85.8996C84.6415 76.647 83.623 75.6289 83.623 74.3711C83.623 73.1134 84.6435 72.0952 85.8996 72.0952H102.696C103.955 72.0952 104.973 73.1134 104.973 74.3711C104.973 75.6289 103.955 76.647 102.696 76.647Z" fill="white"/>
<path d="M132.048 68.3439C130.79 68.3439 129.771 67.3237 129.771 66.068V49.2759C129.771 48.0182 130.792 47 132.048 47C133.304 47 134.325 48.0202 134.325 49.2759V66.068C134.325 67.3237 133.306 68.3439 132.048 68.3439Z" fill="white"/>
<path d="M132.048 68.3438H115.249C113.991 68.3438 112.973 67.3257 112.973 66.0679C112.973 64.8102 113.993 63.792 115.249 63.792H132.046C133.304 63.792 134.323 64.8102 134.323 66.0679C134.323 67.3257 133.306 68.3438 132.048 68.3438Z" fill="white"/>
<path d="M140.354 76.6471C139.096 76.6471 138.077 75.6269 138.077 74.3711V57.5792C138.077 56.3214 139.098 55.3032 140.354 55.3032C141.612 55.3032 142.63 56.3234 142.63 57.5792V74.3711C142.632 75.6289 141.612 76.6471 140.354 76.6471Z" fill="white"/>
<path d="M140.354 76.647H123.557C122.299 76.647 121.28 75.6289 121.28 74.3711C121.28 73.1134 122.301 72.0952 123.557 72.0952H140.354C141.612 72.0952 142.63 73.1134 142.63 74.3711C142.63 75.6289 141.612 76.647 140.354 76.647Z" fill="white"/>
<path d="M169.706 68.3439C168.448 68.3439 167.429 67.3237 167.429 66.068V49.2759C167.429 48.0182 168.45 47 169.706 47C170.962 47 171.982 48.0202 171.982 49.2759V66.068C171.982 67.3237 170.964 68.3439 169.706 68.3439Z" fill="white"/>
<path d="M169.706 68.3438H152.907C151.649 68.3438 150.63 67.3257 150.63 66.0679C150.63 64.8102 151.651 63.792 152.907 63.792H169.704C170.962 63.792 171.98 64.8102 171.98 66.0679C171.98 67.3257 170.964 68.3438 169.706 68.3438Z" fill="white"/>
<path d="M178.011 76.6471C176.753 76.6471 175.735 75.6269 175.735 74.3711V57.5792C175.735 56.3214 176.755 55.3032 178.011 55.3032C179.27 55.3032 180.288 56.3234 180.288 57.5792V74.3711C180.29 75.6289 179.27 76.6471 178.011 76.6471Z" fill="white"/>
<path d="M178.011 76.647H161.215C159.956 76.647 158.938 75.6289 158.938 74.3711C158.938 73.1134 159.958 72.0952 161.215 72.0952H178.011C179.269 72.0952 180.288 73.1134 180.288 74.3711C180.288 75.6289 179.269 76.647 178.011 76.647Z" fill="white"/>
<path d="M207.364 68.3439C206.105 68.3439 205.087 67.3237 205.087 66.068V49.2759C205.087 48.0182 206.107 47 207.364 47C208.62 47 209.64 48.0202 209.64 49.2759V66.068C209.64 67.3237 208.622 68.3439 207.364 68.3439Z" fill="white"/>
<path d="M207.363 68.3438H190.565C189.307 68.3438 188.288 67.3257 188.288 66.0679C188.288 64.8102 189.309 63.792 190.565 63.792H207.361C208.62 63.792 209.638 64.8102 209.638 66.0679C209.638 67.3257 208.622 68.3438 207.363 68.3438Z" fill="white"/>
<path d="M215.669 76.6471C214.411 76.6471 213.393 75.6269 213.393 74.3711V57.5792C213.393 56.3214 214.413 55.3032 215.669 55.3032C216.927 55.3032 217.946 56.3234 217.946 57.5792V74.3711C217.948 75.6289 216.927 76.6471 215.669 76.6471Z" fill="white"/>
<path d="M215.669 76.647H198.872C197.614 76.647 196.596 75.6289 196.596 74.3711C196.596 73.1134 197.616 72.0952 198.872 72.0952H215.669C216.927 72.0952 217.946 73.1134 217.946 74.3711C217.946 75.6289 216.927 76.647 215.669 76.647Z" fill="white"/>
<path d="M245.021 68.3439C243.763 68.3439 242.745 67.3237 242.745 66.068V49.2759C242.745 48.0182 243.765 47 245.021 47C246.277 47 247.298 48.0202 247.298 49.2759V66.068C247.298 67.3237 246.279 68.3439 245.021 68.3439Z" fill="white"/>
<path d="M245.021 68.3438H228.222C226.964 68.3438 225.946 67.3257 225.946 66.0679C225.946 64.8102 226.966 63.792 228.222 63.792H245.019C246.277 63.792 247.296 64.8102 247.296 66.0679C247.296 67.3257 246.279 68.3438 245.021 68.3438Z" fill="white"/>
<path d="M253.327 76.6471C252.069 76.6471 251.05 75.6269 251.05 74.3711V57.5792C251.05 56.3214 252.071 55.3032 253.327 55.3032C254.585 55.3032 255.603 56.3234 255.603 57.5792V74.3711C255.605 75.6289 254.585 76.6471 253.327 76.6471Z" fill="white"/>
<path d="M253.327 76.647H236.53C235.272 76.647 234.253 75.6289 234.253 74.3711C234.253 73.1134 235.274 72.0952 236.53 72.0952H253.327C254.585 72.0952 255.603 73.1134 255.603 74.3711C255.603 75.6289 254.585 76.647 253.327 76.647Z" fill="white"/>
<path d="M282.679 68.3439C281.421 68.3439 280.402 67.3237 280.402 66.068V49.2759C280.402 48.0182 281.423 47 282.679 47C283.935 47 284.956 48.0202 284.956 49.2759V66.068C284.956 67.3237 283.937 68.3439 282.679 68.3439Z" fill="white"/>
<path d="M282.679 68.3438H265.88C264.622 68.3438 263.604 67.3257 263.604 66.0679C263.604 64.8102 264.624 63.792 265.88 63.792H282.677C283.935 63.792 284.953 64.8102 284.953 66.0679C284.953 67.3257 283.937 68.3438 282.679 68.3438Z" fill="white"/>
<path d="M290.985 76.6471C289.726 76.6471 288.708 75.6269 288.708 74.3711V57.5792C288.708 56.3214 289.728 55.3032 290.985 55.3032C292.243 55.3032 293.261 56.3234 293.261 57.5792V74.3711C293.263 75.6289 292.243 76.6471 290.985 76.6471Z" fill="white"/>
<path d="M290.985 76.647H274.188C272.93 76.647 271.911 75.6289 271.911 74.3711C271.911 73.1134 272.932 72.0952 274.188 72.0952H290.985C292.243 72.0952 293.261 73.1134 293.261 74.3711C293.261 75.6289 292.243 76.647 290.985 76.647Z" fill="white"/>
<path d="M320.336 68.3439C319.078 68.3439 318.06 67.3237 318.06 66.068V49.2759C318.06 48.0182 319.08 47 320.336 47C321.592 47 322.613 48.0202 322.613 49.2759V66.068C322.613 67.3237 321.594 68.3439 320.336 68.3439Z" fill="white"/>
<path d="M320.336 68.3438H303.537C302.279 68.3438 301.261 67.3257 301.261 66.0679C301.261 64.8102 302.281 63.792 303.537 63.792H320.334C321.592 63.792 322.611 64.8102 322.611 66.0679C322.611 67.3257 321.594 68.3438 320.336 68.3438Z" fill="white"/>
<path d="M328.642 76.6471C327.384 76.6471 326.365 75.6269 326.365 74.3711V57.5792C326.365 56.3214 327.386 55.3032 328.642 55.3032C329.9 55.3032 330.918 56.3234 330.918 57.5792V74.3711C330.92 75.6289 329.9 76.6471 328.642 76.6471Z" fill="white"/>
<path d="M328.642 76.647H311.845C310.587 76.647 309.568 75.6289 309.568 74.3711C309.568 73.1134 310.589 72.0952 311.845 72.0952H328.642C329.9 72.0952 330.918 73.1134 330.918 74.3711C330.918 75.6289 329.9 76.647 328.642 76.647Z" fill="white"/>
<path d="M84.0754 21.3439C82.8173 21.3439 81.7988 20.3237 81.7988 19.068V2.27594C81.7988 1.01819 82.8193 0 84.0754 0C85.3315 0 86.352 1.02018 86.352 2.27594V19.068C86.352 20.3237 85.3335 21.3439 84.0754 21.3439Z" fill="white"/>
<path d="M84.0754 21.3438H67.2766C66.0185 21.3438 65 20.3257 65 19.0679C65 17.8102 66.0205 16.792 67.2766 16.792H84.0734C85.3315 16.792 86.35 17.8102 86.35 19.0679C86.35 20.3257 85.3335 21.3438 84.0754 21.3438Z" fill="white"/>
<path d="M92.3811 29.6471C91.123 29.6471 90.1045 28.6269 90.1045 27.3711V10.5792C90.1045 9.32141 91.125 8.30322 92.3811 8.30322C93.6392 8.30322 94.6577 9.3234 94.6577 10.5792V27.3711C94.6597 28.6289 93.6392 29.6471 92.3811 29.6471Z" fill="white"/>
<path d="M92.381 29.647H75.5842C74.3261 29.647 73.3076 28.6289 73.3076 27.3711C73.3076 26.1134 74.3281 25.0952 75.5842 25.0952H92.381C93.6391 25.0952 94.6576 26.1134 94.6576 27.3711C94.6576 28.6289 93.6391 29.647 92.381 29.647Z" fill="white"/>
<path d="M121.733 21.3439C120.475 21.3439 119.457 20.3237 119.457 19.068V2.27594C119.457 1.01819 120.477 0 121.733 0C122.989 0 124.01 1.02018 124.01 2.27594V19.068C124.01 20.3237 122.991 21.3439 121.733 21.3439Z" fill="white"/>
<path d="M121.733 21.3438H104.934C103.676 21.3438 102.658 20.3257 102.658 19.0679C102.658 17.8102 103.678 16.792 104.934 16.792H121.731C122.989 16.792 124.008 17.8102 124.008 19.0679C124.008 20.3257 122.991 21.3438 121.733 21.3438Z" fill="white"/>
<path d="M130.039 29.6471C128.781 29.6471 127.762 28.6269 127.762 27.3711V10.5792C127.762 9.32141 128.783 8.30322 130.039 8.30322C131.297 8.30322 132.315 9.3234 132.315 10.5792V27.3711C132.317 28.6289 131.297 29.6471 130.039 29.6471Z" fill="white"/>
<path d="M130.039 29.647H113.242C111.984 29.647 110.965 28.6289 110.965 27.3711C110.965 26.1134 111.986 25.0952 113.242 25.0952H130.039C131.297 25.0952 132.315 26.1134 132.315 27.3711C132.315 28.6289 131.297 29.647 130.039 29.647Z" fill="white"/>
<path d="M159.391 21.3439C158.133 21.3439 157.114 20.3237 157.114 19.068V2.27594C157.114 1.01819 158.135 0 159.391 0C160.647 0 161.667 1.02018 161.667 2.27594V19.068C161.667 20.3237 160.649 21.3439 159.391 21.3439Z" fill="white"/>
<path d="M159.391 21.3438H142.592C141.334 21.3438 140.315 20.3257 140.315 19.0679C140.315 17.8102 141.336 16.792 142.592 16.792H159.389C160.647 16.792 161.665 17.8102 161.665 19.0679C161.665 20.3257 160.649 21.3438 159.391 21.3438Z" fill="white"/>
<path d="M167.697 29.6471C166.438 29.6471 165.42 28.6269 165.42 27.3711V10.5792C165.42 9.32141 166.44 8.30322 167.697 8.30322C168.955 8.30322 169.973 9.3234 169.973 10.5792V27.3711C169.975 28.6289 168.955 29.6471 167.697 29.6471Z" fill="white"/>
<path d="M167.696 29.647H150.9C149.642 29.647 148.623 28.6289 148.623 27.3711C148.623 26.1134 149.644 25.0952 150.9 25.0952H167.696C168.955 25.0952 169.973 26.1134 169.973 27.3711C169.973 28.6289 168.955 29.647 167.696 29.647Z" fill="white"/>
<path d="M197.048 21.3439C195.79 21.3439 194.771 20.3237 194.771 19.068V2.27594C194.771 1.01819 195.792 0 197.048 0C198.304 0 199.325 1.02018 199.325 2.27594V19.068C199.325 20.3237 198.306 21.3439 197.048 21.3439Z" fill="white"/>
<path d="M197.048 21.3438H180.249C178.991 21.3438 177.973 20.3257 177.973 19.0679C177.973 17.8102 178.993 16.792 180.249 16.792H197.046C198.304 16.792 199.323 17.8102 199.323 19.0679C199.323 20.3257 198.306 21.3438 197.048 21.3438Z" fill="white"/>
<path d="M205.354 29.6471C204.096 29.6471 203.077 28.6269 203.077 27.3711V10.5792C203.077 9.32141 204.098 8.30322 205.354 8.30322C206.612 8.30322 207.63 9.3234 207.63 10.5792V27.3711C207.632 28.6289 206.612 29.6471 205.354 29.6471Z" fill="white"/>
<path d="M205.354 29.647H188.557C187.299 29.647 186.28 28.6289 186.28 27.3711C186.28 26.1134 187.301 25.0952 188.557 25.0952H205.354C206.612 25.0952 207.63 26.1134 207.63 27.3711C207.63 28.6289 206.612 29.647 205.354 29.647Z" fill="white"/>
<path d="M234.706 21.3439C233.448 21.3439 232.429 20.3237 232.429 19.068V2.27594C232.429 1.01819 233.45 0 234.706 0C235.962 0 236.982 1.02018 236.982 2.27594V19.068C236.982 20.3237 235.964 21.3439 234.706 21.3439Z" fill="white"/>
<path d="M234.706 21.3438H217.907C216.649 21.3438 215.63 20.3257 215.63 19.0679C215.63 17.8102 216.651 16.792 217.907 16.792H234.704C235.962 16.792 236.98 17.8102 236.98 19.0679C236.98 20.3257 235.964 21.3438 234.706 21.3438Z" fill="white"/>
<path d="M243.011 29.6471C241.753 29.6471 240.735 28.6269 240.735 27.3711V10.5792C240.735 9.32141 241.755 8.30322 243.011 8.30322C244.27 8.30322 245.288 9.3234 245.288 10.5792V27.3711C245.29 28.6289 244.27 29.6471 243.011 29.6471Z" fill="white"/>
<path d="M243.011 29.647H226.215C224.956 29.647 223.938 28.6289 223.938 27.3711C223.938 26.1134 224.958 25.0952 226.215 25.0952H243.011C244.269 25.0952 245.288 26.1134 245.288 27.3711C245.288 28.6289 244.269 29.647 243.011 29.647Z" fill="white"/>
<path d="M272.364 21.3439C271.105 21.3439 270.087 20.3237 270.087 19.068V2.27594C270.087 1.01819 271.107 0 272.364 0C273.62 0 274.64 1.02018 274.64 2.27594V19.068C274.64 20.3237 273.622 21.3439 272.364 21.3439Z" fill="white"/>
<path d="M272.363 21.3438H255.565C254.307 21.3438 253.288 20.3257 253.288 19.0679C253.288 17.8102 254.309 16.792 255.565 16.792H272.361C273.62 16.792 274.638 17.8102 274.638 19.0679C274.638 20.3257 273.622 21.3438 272.363 21.3438Z" fill="white"/>
<path d="M280.669 29.6471C279.411 29.6471 278.393 28.6269 278.393 27.3711V10.5792C278.393 9.32141 279.413 8.30322 280.669 8.30322C281.927 8.30322 282.946 9.3234 282.946 10.5792V27.3711C282.948 28.6289 281.927 29.6471 280.669 29.6471Z" fill="white"/>
<path d="M280.669 29.647H263.872C262.614 29.647 261.596 28.6289 261.596 27.3711C261.596 26.1134 262.616 25.0952 263.872 25.0952H280.669C281.927 25.0952 282.946 26.1134 282.946 27.3711C282.946 28.6289 281.927 29.647 280.669 29.647Z" fill="white"/>
<path d="M310.021 21.3439C308.763 21.3439 307.745 20.3237 307.745 19.068V2.27594C307.745 1.01819 308.765 0 310.021 0C311.277 0 312.298 1.02018 312.298 2.27594V19.068C312.298 20.3237 311.279 21.3439 310.021 21.3439Z" fill="white"/>
<path d="M310.021 21.3438H293.222C291.964 21.3438 290.946 20.3257 290.946 19.0679C290.946 17.8102 291.966 16.792 293.222 16.792H310.019C311.277 16.792 312.296 17.8102 312.296 19.0679C312.296 20.3257 311.279 21.3438 310.021 21.3438Z" fill="white"/>
<path d="M318.327 29.6471C317.069 29.6471 316.05 28.6269 316.05 27.3711V10.5792C316.05 9.32141 317.071 8.30322 318.327 8.30322C319.585 8.30322 320.603 9.3234 320.603 10.5792V27.3711C320.605 28.6289 319.585 29.6471 318.327 29.6471Z" fill="white"/>
<path d="M318.327 29.647H301.53C300.272 29.647 299.253 28.6289 299.253 27.3711C299.253 26.1134 300.274 25.0952 301.53 25.0952H318.327C319.585 25.0952 320.603 26.1134 320.603 27.3711C320.603 28.6289 319.585 29.647 318.327 29.647Z" fill="white"/>
<path d="M347.679 21.3439C346.421 21.3439 345.402 20.3237 345.402 19.068V2.27594C345.402 1.01819 346.423 0 347.679 0C348.935 0 349.956 1.02018 349.956 2.27594V19.068C349.956 20.3237 348.937 21.3439 347.679 21.3439Z" fill="white"/>
<path d="M347.679 21.3438H330.88C329.622 21.3438 328.604 20.3257 328.604 19.0679C328.604 17.8102 329.624 16.792 330.88 16.792H347.677C348.935 16.792 349.953 17.8102 349.953 19.0679C349.953 20.3257 348.937 21.3438 347.679 21.3438Z" fill="white"/>
<path d="M355.985 29.6471C354.726 29.6471 353.708 28.6269 353.708 27.3711V10.5792C353.708 9.32141 354.728 8.30322 355.985 8.30322C357.243 8.30322 358.261 9.3234 358.261 10.5792V27.3711C358.263 28.6289 357.243 29.6471 355.985 29.6471Z" fill="white"/>
<path d="M355.985 29.647H339.188C337.93 29.647 336.911 28.6289 336.911 27.3711C336.911 26.1134 337.932 25.0952 339.188 25.0952H355.985C357.243 25.0952 358.261 26.1134 358.261 27.3711C358.261 28.6289 357.243 29.647 355.985 29.647Z" fill="white"/>
<path d="M385.336 21.3439C384.078 21.3439 383.06 20.3237 383.06 19.068V2.27594C383.06 1.01819 384.08 0 385.336 0C386.592 0 387.613 1.02018 387.613 2.27594V19.068C387.613 20.3237 386.594 21.3439 385.336 21.3439Z" fill="white"/>
<path d="M385.336 21.3438H368.537C367.279 21.3438 366.261 20.3257 366.261 19.0679C366.261 17.8102 367.281 16.792 368.537 16.792H385.334C386.592 16.792 387.611 17.8102 387.611 19.0679C387.611 20.3257 386.594 21.3438 385.336 21.3438Z" fill="white"/>
<path d="M393.642 29.6471C392.384 29.6471 391.365 28.6269 391.365 27.3711V10.5792C391.365 9.32141 392.386 8.30322 393.642 8.30322C394.9 8.30322 395.918 9.3234 395.918 10.5792V27.3711C395.92 28.6289 394.9 29.6471 393.642 29.6471Z" fill="white"/>
<path d="M393.642 29.647H376.845C375.587 29.647 374.568 28.6289 374.568 27.3711C374.568 26.1134 375.589 25.0952 376.845 25.0952H393.642C394.9 25.0952 395.918 26.1134 395.918 27.3711C395.918 28.6289 394.9 29.647 393.642 29.647Z" fill="white"/>
</svg>
