<svg width="22" height="23" viewBox="0 0 22 23" fill="none" xmlns="http://www.w3.org/2000/svg">
<path d="M10.3375 12.4158L18.3156 22.487C18.4094 22.6074 18.5562 22.6753 18.7094 22.6753H21.125C21.3344 22.6753 21.45 22.4376 21.3219 22.277L13.0281 11.8076L21.3219 1.3381C21.3507 1.3017 21.3686 1.25801 21.3735 1.21203C21.3784 1.16605 21.3701 1.11963 21.3496 1.07808C21.3291 1.03653 21.2971 1.00154 21.2574 0.977085C21.2177 0.952637 21.1718 0.939724 21.125 0.939823H18.7094C18.5562 0.939823 18.4094 1.01083 18.3156 1.12815L10.3375 11.1962C10.0531 11.5575 10.0531 12.0576 10.3375 12.4158ZM0.837484 12.4158L8.81561 22.487C8.90936 22.6074 9.05623 22.6753 9.20936 22.6753H11.625C11.8344 22.6753 11.95 22.4376 11.8219 22.277L3.52811 11.8076L11.8219 1.3381C11.8507 1.3017 11.8686 1.25801 11.8735 1.21203C11.8784 1.16605 11.8701 1.11963 11.8496 1.07808C11.8291 1.03653 11.7971 1.00154 11.7574 0.977085C11.7177 0.952637 11.6718 0.939724 11.625 0.939823H9.20936C9.05623 0.939823 8.90936 1.01083 8.81561 1.12815L0.837484 11.1962C0.55311 11.5575 0.55311 12.0576 0.837484 12.4158Z" fill="#FFA500"/>
</svg>
